<svg width="124" height="720" viewBox="0 0 124 720" fill="none" xmlns="http://www.w3.org/2000/svg">
<path d="M123.118 68.5783C106.036 68.5783 92.1689 56.5787 92.1689 41.7968V0H123.118V68.5783Z" fill="#C69177"/>
<path d="M61.2348 68.5783C44.1532 68.5783 30.2877 56.5787 30.2877 41.7968V0H61.2348V68.5783Z" fill="#C69177"/>
<path d="M-0.652283 68.5783C-17.7339 68.5783 -31.5994 56.5787 -31.5994 41.7969V0H-0.652283V68.5783Z" fill="#C69177"/>
<path d="M-62.545 68.5783C-79.6266 68.5783 -93.4811 56.5787 -93.4811 41.7969V0H-62.5322V68.5783H-62.545Z" fill="#C69177"/>
<path d="M-124.433 68.5783C-141.501 68.5783 -155.369 56.5787 -155.369 41.7968V0H-124.42V68.5783H-124.433Z" fill="#C69177"/>
<path d="M-186.314 68.5783C-203.383 68.5783 -217.25 56.5787 -217.25 41.7968V0H-186.301V68.5783H-186.314Z" fill="#C69177"/>
<path d="M-248.201 68.5783C-265.283 68.5783 -279.15 56.5787 -279.15 41.7969V0H-248.201V68.5783Z" fill="#C69177"/>
<path d="M-310.082 68.5783C-327.164 68.5783 -341.031 56.5787 -341.031 41.7968V0H-310.082V68.5783Z" fill="#C69177"/>
<path d="M-310.081 68.5789C-293 68.5789 -279.134 80.5785 -279.134 95.3603V137.157H-310.081V68.5789Z" fill="#C69177"/>
<path d="M-248.2 68.5789C-231.118 68.5789 -217.253 80.5785 -217.253 95.3604V137.158H-248.2V68.5789Z" fill="#C69177"/>
<path d="M-186.319 68.5789C-169.237 68.5789 -155.37 80.5785 -155.37 95.3604V137.158H-186.319V68.5789Z" fill="#C69177"/>
<path d="M-124.431 68.5789C-107.349 68.5789 -93.4823 80.5785 -93.4823 95.3603V137.157H-124.431V68.5789Z" fill="#C69177"/>
<path d="M-62.5498 68.5789C-45.4682 68.5789 -31.6027 80.5785 -31.6027 95.3603V137.157H-62.5498V68.5789Z" fill="#C69177"/>
<path d="M-0.649841 68.5789C16.4318 68.5789 30.299 80.5785 30.299 95.3604V137.158H-0.649841V68.5789Z" fill="#C69177"/>
<path d="M61.2314 68.5789C78.313 68.5789 92.1803 80.5785 92.1803 95.3603V137.157H61.2314V68.5789Z" fill="#C69177"/>
<path d="M123.118 205.714C106.036 205.714 92.1689 193.714 92.1689 178.932V137.135H123.118V205.714Z" fill="#C69177"/>
<path d="M61.2348 205.714C44.1532 205.714 30.2877 193.714 30.2877 178.932V137.135H61.2348V205.714Z" fill="#C69177"/>
<path d="M-0.65271 205.714C-17.7343 205.714 -31.5999 193.714 -31.5999 178.932V137.135H-0.65271V205.714Z" fill="#C69177"/>
<path d="M-62.5447 205.714C-79.6263 205.714 -93.4936 193.714 -93.4936 178.932V137.135H-62.5447V205.714Z" fill="#C69177"/>
<path d="M-124.432 205.714C-141.514 205.714 -155.381 193.714 -155.381 178.932V137.135H-124.432V205.714Z" fill="#C69177"/>
<path d="M-186.315 205.714C-203.397 205.714 -217.262 193.714 -217.262 178.932V137.135H-186.315V205.714Z" fill="#C69177"/>
<path d="M-248.201 205.714C-265.283 205.714 -279.15 193.714 -279.15 178.932V137.135H-248.201V205.714Z" fill="#C69177"/>
<path d="M-310.082 205.714C-327.164 205.714 -341.031 193.714 -341.031 178.932V137.135H-310.082V205.714Z" fill="#C69177"/>
<path d="M-310.081 205.724C-293 205.724 -279.134 217.724 -279.134 232.506V274.303H-310.081V205.724Z" fill="#C69177"/>
<path d="M-248.2 205.724C-231.118 205.724 -217.253 217.724 -217.253 232.506V274.303H-248.2V205.724Z" fill="#C69177"/>
<path d="M-186.319 205.724C-169.237 205.724 -155.37 217.724 -155.37 232.506V274.303H-186.319V205.724Z" fill="#C69177"/>
<path d="M-124.431 205.724C-107.349 205.724 -93.4823 217.724 -93.4823 232.506V274.303H-124.431V205.724Z" fill="#C69177"/>
<path d="M-62.5498 205.724C-45.4682 205.724 -31.6027 217.724 -31.6027 232.506V274.303H-62.5498V205.724Z" fill="#C69177"/>
<path d="M-0.649841 205.724C16.4318 205.724 30.299 217.724 30.299 232.506V274.303H-0.649841V205.724Z" fill="#C69177"/>
<path d="M61.2314 205.724C78.313 205.724 92.1803 217.724 92.1803 232.506V274.303H61.2314V205.724Z" fill="#C69177"/>
<path d="M123.118 342.859C106.036 342.859 92.1689 330.859 92.1689 316.077V274.281H123.118V342.859Z" fill="#C69177"/>
<path d="M61.2348 342.859C44.1532 342.859 30.2877 330.859 30.2877 316.077V274.281H61.2348V342.859Z" fill="#C69177"/>
<path d="M-0.65271 342.859C-17.7343 342.859 -31.5999 330.859 -31.5999 316.077V274.281H-0.65271V342.859Z" fill="#C69177"/>
<path d="M-62.5447 342.859C-79.6263 342.859 -93.4936 330.859 -93.4936 316.077V274.281H-62.5447V342.859Z" fill="#C69177"/>
<path d="M-124.432 342.859C-141.514 342.859 -155.381 330.859 -155.381 316.077V274.281H-124.432V342.859Z" fill="#C69177"/>
<path d="M-186.315 342.859C-203.397 342.859 -217.262 330.859 -217.262 316.077V274.281H-186.315V342.859Z" fill="#C69177"/>
<path d="M-248.201 342.859C-265.283 342.859 -279.15 330.859 -279.15 316.077V274.281H-248.201V342.859Z" fill="#C69177"/>
<path d="M-310.082 342.859C-327.164 342.859 -341.031 330.859 -341.031 316.077V274.281H-310.082V342.859Z" fill="#C69177"/>
<path d="M-310.081 342.859C-293 342.859 -279.134 354.859 -279.134 369.641V411.438H-310.081V342.859Z" fill="#C69177"/>
<path d="M-248.2 342.859C-231.118 342.859 -217.253 354.859 -217.253 369.641V411.438H-248.2V342.859Z" fill="#C69177"/>
<path d="M-186.319 342.859C-169.237 342.859 -155.37 354.859 -155.37 369.641V411.438H-186.319V342.859Z" fill="#C69177"/>
<path d="M-124.431 342.859C-107.349 342.859 -93.4823 354.859 -93.4823 369.641V411.438H-124.431V342.859Z" fill="#C69177"/>
<path d="M-62.5498 342.859C-45.4682 342.859 -31.6027 354.859 -31.6027 369.641V411.438H-62.5498V342.859Z" fill="#C69177"/>
<path d="M-0.649841 342.859C16.4318 342.859 30.299 354.859 30.299 369.641V411.438H-0.649841V342.859Z" fill="#C69177"/>
<path d="M61.2314 342.859C78.313 342.859 92.1803 354.859 92.1803 369.641V411.438H61.2314V342.859Z" fill="#C69177"/>
<path d="M123.118 479.996C106.036 479.996 92.1689 467.996 92.1689 453.214V411.417H123.118V479.996Z" fill="#C69177"/>
<path d="M61.2348 479.996C44.1532 479.996 30.2877 467.996 30.2877 453.214V411.417H61.2348V479.996Z" fill="#C69177"/>
<path d="M-0.65271 479.996C-17.7343 479.996 -31.5999 467.996 -31.5999 453.214V411.417H-0.65271V479.996Z" fill="#C69177"/>
<path d="M-62.5447 479.996C-79.6263 479.996 -93.4936 467.996 -93.4936 453.214V411.417H-62.5447V479.996Z" fill="#C69177"/>
<path d="M-124.432 479.996C-141.514 479.996 -155.381 467.996 -155.381 453.214V411.417H-124.432V479.996Z" fill="#C69177"/>
<path d="M-186.315 479.996C-203.397 479.996 -217.262 467.996 -217.262 453.214V411.417H-186.315V479.996Z" fill="#C69177"/>
<path d="M-248.201 479.996C-265.283 479.996 -279.15 467.996 -279.15 453.214V411.417H-248.201V479.996Z" fill="#C69177"/>
<path d="M-310.082 479.996C-327.164 479.996 -341.031 467.996 -341.031 453.214V411.417H-310.082V479.996Z" fill="#C69177"/>
<path d="M-310.081 480.005C-293 480.005 -279.134 492.005 -279.134 506.786V548.583H-310.081V480.005Z" fill="#C69177"/>
<path d="M-248.2 480.005C-231.118 480.005 -217.253 492.005 -217.253 506.786V548.583H-248.2V480.005Z" fill="#C69177"/>
<path d="M-186.319 480.005C-169.237 480.005 -155.37 492.005 -155.37 506.786V548.583H-186.319V480.005Z" fill="#C69177"/>
<path d="M-124.431 480.005C-107.349 480.005 -93.4823 492.005 -93.4823 506.786V548.583H-124.431V480.005Z" fill="#C69177"/>
<path d="M-62.5498 480.005C-45.4682 480.005 -31.6027 492.005 -31.6027 506.786V548.583H-62.5498V480.005Z" fill="#C69177"/>
<path d="M-0.649841 480.005C16.4318 480.005 30.299 492.005 30.299 506.786V548.583H-0.649841V480.005Z" fill="#C69177"/>
<path d="M61.2314 480.005C78.313 480.005 92.1803 492.005 92.1803 506.786V548.583H61.2314V480.005Z" fill="#C69177"/>
<path d="M123.118 617.141C106.036 617.141 92.1689 605.141 92.1689 590.359V548.563H123.118V617.141Z" fill="#C69177"/>
<path d="M61.2348 617.141C44.1532 617.141 30.2877 605.141 30.2877 590.359V548.563H61.2348V617.141Z" fill="#C69177"/>
<path d="M-0.65271 617.141C-17.7343 617.141 -31.5999 605.141 -31.5999 590.359V548.563H-0.65271V617.141Z" fill="#C69177"/>
<path d="M-62.5447 617.141C-79.6263 617.141 -93.4936 605.141 -93.4936 590.359V548.563H-62.5447V617.141Z" fill="#C69177"/>
<path d="M-124.432 617.141C-141.514 617.141 -155.381 605.141 -155.381 590.359V548.563H-124.432V617.141Z" fill="#C69177"/>
<path d="M-186.315 617.141C-203.397 617.141 -217.262 605.141 -217.262 590.359V548.563H-186.315V617.141Z" fill="#C69177"/>
<path d="M-248.201 617.141C-265.283 617.141 -279.15 605.141 -279.15 590.359V548.563H-248.201V617.141Z" fill="#C69177"/>
<path d="M-310.082 617.141C-327.164 617.141 -341.031 605.141 -341.031 590.359V548.563H-310.082V617.141Z" fill="#C69177"/>
<path d="M-310.081 617.142C-293 617.142 -279.134 629.141 -279.134 643.923V685.72H-310.081V617.142Z" fill="#C69177"/>
<path d="M-248.2 617.142C-231.118 617.142 -217.253 629.14 -217.253 643.923V685.72H-248.2V617.142Z" fill="#C69177"/>
<path d="M-186.319 617.142C-169.237 617.142 -155.37 629.14 -155.37 643.923V685.72H-186.319V617.142Z" fill="#C69177"/>
<path d="M-124.431 617.142C-107.349 617.142 -93.4823 629.141 -93.4823 643.923V685.72H-124.431V617.142Z" fill="#C69177"/>
<path d="M-62.5498 617.142C-45.4682 617.142 -31.6027 629.141 -31.6027 643.923V685.72H-62.5498V617.142Z" fill="#C69177"/>
<path d="M-0.649841 617.142C16.4318 617.142 30.299 629.14 30.299 643.923V685.72H-0.649841V617.142Z" fill="#C69177"/>
<path d="M61.2314 617.142C78.313 617.142 92.1803 629.141 92.1803 643.923V685.72H61.2314V617.142Z" fill="#C69177"/>
<path d="M123.118 754.287C106.036 754.287 92.1689 742.287 92.1689 727.506V685.709H123.118V754.287Z" fill="#C69177"/>
<path d="M61.2348 754.287C44.1532 754.287 30.2877 742.287 30.2877 727.506V685.709H61.2348V754.287Z" fill="#C69177"/>
<path d="M-0.65271 754.287C-17.7343 754.287 -31.5999 742.287 -31.5999 727.506V685.709H-0.65271V754.287Z" fill="#C69177"/>
<path d="M-62.5447 754.287C-79.6263 754.287 -93.4936 742.287 -93.4936 727.506V685.709H-62.5447V754.287Z" fill="#C69177"/>
<path d="M-124.432 754.287C-141.514 754.287 -155.381 742.287 -155.381 727.506V685.709H-124.432V754.287Z" fill="#C69177"/>
<path d="M-186.315 754.287C-203.397 754.287 -217.262 742.287 -217.262 727.506V685.709H-186.315V754.287Z" fill="#C69177"/>
<path d="M-248.201 754.287C-265.283 754.287 -279.15 742.287 -279.15 727.506V685.709H-248.201V754.287Z" fill="#C69177"/>
<path d="M-310.082 754.287C-327.164 754.287 -341.031 742.287 -341.031 727.506V685.709H-310.082V754.287Z" fill="#C69177"/>
<path d="M-310.081 754.288C-293 754.288 -279.134 766.288 -279.134 781.069V822.866H-310.081V754.288Z" fill="#C69177"/>
<path d="M-248.2 754.288C-231.118 754.288 -217.253 766.288 -217.253 781.069V822.866H-248.2V754.288Z" fill="#C69177"/>
<path d="M-186.319 754.288C-169.237 754.288 -155.37 766.288 -155.37 781.069V822.866H-186.319V754.288Z" fill="#C69177"/>
<path d="M-124.431 754.288C-107.349 754.288 -93.4823 766.288 -93.4823 781.069V822.866H-124.431V754.288Z" fill="#C69177"/>
<path d="M-62.5498 754.288C-45.4682 754.288 -31.6027 766.288 -31.6027 781.069V822.866H-62.5498V754.288Z" fill="#C69177"/>
<path d="M-0.649841 754.288C16.4318 754.288 30.299 766.288 30.299 781.069V822.866H-0.649841V754.288Z" fill="#C69177"/>
<path d="M61.2314 754.288C78.313 754.288 92.1803 766.288 92.1803 781.069V822.866H61.2314V754.288Z" fill="#C69177"/>
<path d="M123.118 891.433C106.036 891.433 92.1689 879.433 92.1689 864.652V822.855H123.118V891.433Z" fill="#C69177"/>
<path d="M61.2348 891.433C44.1532 891.433 30.2877 879.433 30.2877 864.652V822.855H61.2348V891.433Z" fill="#C69177"/>
<path d="M-0.65271 891.433C-17.7343 891.433 -31.5999 879.433 -31.5999 864.652V822.855H-0.65271V891.433Z" fill="#C69177"/>
<path d="M-62.5447 891.433C-79.6263 891.433 -93.4936 879.433 -93.4936 864.652V822.855H-62.5447V891.433Z" fill="#C69177"/>
<path d="M-124.432 891.433C-141.514 891.433 -155.381 879.433 -155.381 864.652V822.855H-124.432V891.433Z" fill="#C69177"/>
<path d="M-186.315 891.433C-203.397 891.433 -217.262 879.433 -217.262 864.652V822.855H-186.315V891.433Z" fill="#C69177"/>
<path d="M-248.201 891.433C-265.283 891.433 -279.15 879.433 -279.15 864.652V822.855H-248.201V891.433Z" fill="#C69177"/>
<path d="M-310.082 891.433C-327.164 891.433 -341.031 879.433 -341.031 864.652V822.855H-310.082V891.433Z" fill="#C69177"/>
<path d="M-310.081 891.421C-293 891.421 -279.134 903.421 -279.134 918.203V960H-310.081V891.421Z" fill="#C69177"/>
<path d="M-248.2 891.421C-231.118 891.421 -217.253 903.421 -217.253 918.203V960H-248.2V891.421Z" fill="#C69177"/>
<path d="M-186.319 891.421C-169.237 891.421 -155.37 903.421 -155.37 918.203V960H-186.319V891.421Z" fill="#C69177"/>
<path d="M-124.431 891.421C-107.349 891.421 -93.4823 903.421 -93.4823 918.203V960H-124.431V891.421Z" fill="#C69177"/>
<path d="M-62.5498 891.421C-45.4682 891.421 -31.6027 903.421 -31.6027 918.203V960H-62.5498V891.421Z" fill="#C69177"/>
<path d="M-0.649841 891.421C16.4318 891.421 30.299 903.421 30.299 918.203V960H-0.649841V891.421Z" fill="#C69177"/>
<path d="M61.2314 891.421C78.313 891.421 92.1803 903.421 92.1803 918.203V960H61.2314V891.421Z" fill="#C69177"/>
<path d="M-310.082 68.5783C-327.164 68.5783 -341.031 56.5787 -341.031 41.7968V0H-310.082V68.5783Z" fill="#C69177"/>
<path d="M-371.97 68.5783C-389.051 68.5783 -402.919 56.5787 -402.919 41.7968V0H-371.97V68.5783Z" fill="#C69177"/>
<path d="M-433.852 68.5783C-450.934 68.5783 -464.8 56.5787 -464.8 41.7969V0H-433.852V68.5783Z" fill="#C69177"/>
<path d="M-495.745 68.5783C-512.827 68.5783 -526.681 56.5787 -526.681 41.7969V0H-495.732V68.5783H-495.745Z" fill="#C69177"/>
<path d="M-557.633 68.5783C-574.702 68.5783 -588.569 56.5787 -588.569 41.7968V0H-557.62V68.5783H-557.633Z" fill="#C69177"/>
<path d="M-619.516 68.5783C-636.584 68.5783 -650.45 56.5787 -650.45 41.7968V0H-619.503V68.5783H-619.516Z" fill="#C69177"/>
<path d="M-681.39 68.5783C-698.472 68.5783 -712.337 56.5787 -712.337 41.7969V0H-681.39V68.5783Z" fill="#C69177"/>
<path d="M-743.283 68.5783C-760.365 68.5783 -774.231 56.5787 -774.231 41.7968V0H-743.283V68.5783Z" fill="#C69177"/>
<path d="M-743.281 68.5789C-726.2 68.5789 -712.333 80.5785 -712.333 95.3603V137.157H-743.281V68.5789Z" fill="#C69177"/>
<path d="M-681.4 68.5789C-664.318 68.5789 -650.453 80.5785 -650.453 95.3604V137.158H-681.4V68.5789Z" fill="#C69177"/>
<path d="M-619.519 68.5789C-602.437 68.5789 -588.57 80.5785 -588.57 95.3604V137.158H-619.519V68.5789Z" fill="#C69177"/>
<path d="M-557.631 68.5789C-540.55 68.5789 -526.682 80.5785 -526.682 95.3603V137.157H-557.631V68.5789Z" fill="#C69177"/>
<path d="M-495.75 68.5789C-478.668 68.5789 -464.803 80.5785 -464.803 95.3603V137.157H-495.75V68.5789Z" fill="#C69177"/>
<path d="M-433.85 68.5789C-416.768 68.5789 -402.901 80.5785 -402.901 95.3604V137.158H-433.85V68.5789Z" fill="#C69177"/>
<path d="M-371.969 68.5789C-354.887 68.5789 -341.02 80.5785 -341.02 95.3603V137.157H-371.969V68.5789Z" fill="#C69177"/>
<path d="M-310.082 205.714C-327.164 205.714 -341.031 193.714 -341.031 178.932V137.135H-310.082V205.714Z" fill="#C69177"/>
<path d="M-371.97 205.714C-389.051 205.714 -402.919 193.714 -402.919 178.932V137.135H-371.97V205.714Z" fill="#C69177"/>
<path d="M-433.853 205.714C-450.934 205.714 -464.8 193.714 -464.8 178.932V137.135H-433.853V205.714Z" fill="#C69177"/>
<path d="M-495.745 205.714C-512.826 205.714 -526.694 193.714 -526.694 178.932V137.135H-495.745V205.714Z" fill="#C69177"/>
<path d="M-557.632 205.714C-574.714 205.714 -588.581 193.714 -588.581 178.932V137.135H-557.632V205.714Z" fill="#C69177"/>
<path d="M-619.515 205.714C-636.597 205.714 -650.462 193.714 -650.462 178.932V137.135H-619.515V205.714Z" fill="#C69177"/>
<path d="M-681.39 205.714C-698.472 205.714 -712.337 193.714 -712.337 178.932V137.135H-681.39V205.714Z" fill="#C69177"/>
<path d="M-743.283 205.714C-760.365 205.714 -774.231 193.714 -774.231 178.932V137.135H-743.283V205.714Z" fill="#C69177"/>
<path d="M-743.281 205.724C-726.2 205.724 -712.333 217.724 -712.333 232.506V274.303H-743.281V205.724Z" fill="#C69177"/>
<path d="M-681.4 205.724C-664.318 205.724 -650.453 217.724 -650.453 232.506V274.303H-681.4V205.724Z" fill="#C69177"/>
<path d="M-619.519 205.724C-602.437 205.724 -588.57 217.724 -588.57 232.506V274.303H-619.519V205.724Z" fill="#C69177"/>
<path d="M-557.631 205.724C-540.55 205.724 -526.682 217.724 -526.682 232.506V274.303H-557.631V205.724Z" fill="#C69177"/>
<path d="M-495.75 205.724C-478.668 205.724 -464.803 217.724 -464.803 232.506V274.303H-495.75V205.724Z" fill="#C69177"/>
<path d="M-433.85 205.724C-416.768 205.724 -402.901 217.724 -402.901 232.506V274.303H-433.85V205.724Z" fill="#C69177"/>
<path d="M-371.969 205.724C-354.887 205.724 -341.02 217.724 -341.02 232.506V274.303H-371.969V205.724Z" fill="#C69177"/>
<path d="M-310.082 342.859C-327.164 342.859 -341.031 330.859 -341.031 316.077V274.281H-310.082V342.859Z" fill="#C69177"/>
<path d="M-371.97 342.859C-389.051 342.859 -402.919 330.859 -402.919 316.077V274.281H-371.97V342.859Z" fill="#C69177"/>
<path d="M-433.853 342.859C-450.934 342.859 -464.8 330.859 -464.8 316.077V274.281H-433.853V342.859Z" fill="#C69177"/>
<path d="M-495.745 342.859C-512.826 342.859 -526.694 330.859 -526.694 316.077V274.281H-495.745V342.859Z" fill="#C69177"/>
<path d="M-557.632 342.859C-574.714 342.859 -588.581 330.859 -588.581 316.077V274.281H-557.632V342.859Z" fill="#C69177"/>
<path d="M-619.515 342.859C-636.597 342.859 -650.462 330.859 -650.462 316.077V274.281H-619.515V342.859Z" fill="#C69177"/>
<path d="M-681.39 342.859C-698.472 342.859 -712.337 330.859 -712.337 316.077V274.281H-681.39V342.859Z" fill="#C69177"/>
<path d="M-743.283 342.859C-760.365 342.859 -774.231 330.859 -774.231 316.077V274.281H-743.283V342.859Z" fill="#C69177"/>
<path d="M-743.281 342.859C-726.2 342.859 -712.333 354.859 -712.333 369.641V411.438H-743.281V342.859Z" fill="#C69177"/>
<path d="M-681.4 342.859C-664.318 342.859 -650.453 354.859 -650.453 369.641V411.438H-681.4V342.859Z" fill="#C69177"/>
<path d="M-619.519 342.859C-602.437 342.859 -588.57 354.859 -588.57 369.641V411.438H-619.519V342.859Z" fill="#C69177"/>
<path d="M-557.631 342.859C-540.55 342.859 -526.682 354.859 -526.682 369.641V411.438H-557.631V342.859Z" fill="#C69177"/>
<path d="M-495.75 342.859C-478.668 342.859 -464.803 354.859 -464.803 369.641V411.438H-495.75V342.859Z" fill="#C69177"/>
<path d="M-433.85 342.859C-416.768 342.859 -402.901 354.859 -402.901 369.641V411.438H-433.85V342.859Z" fill="#C69177"/>
<path d="M-371.969 342.859C-354.887 342.859 -341.02 354.859 -341.02 369.641V411.438H-371.969V342.859Z" fill="#C69177"/>
<path d="M-310.082 479.996C-327.164 479.996 -341.031 467.996 -341.031 453.214V411.417H-310.082V479.996Z" fill="#C69177"/>
<path d="M-371.97 479.996C-389.051 479.996 -402.919 467.996 -402.919 453.214V411.417H-371.97V479.996Z" fill="#C69177"/>
<path d="M-433.853 479.996C-450.934 479.996 -464.8 467.996 -464.8 453.214V411.417H-433.853V479.996Z" fill="#C69177"/>
<path d="M-495.745 479.996C-512.826 479.996 -526.694 467.996 -526.694 453.214V411.417H-495.745V479.996Z" fill="#C69177"/>
<path d="M-557.632 479.996C-574.714 479.996 -588.581 467.996 -588.581 453.214V411.417H-557.632V479.996Z" fill="#C69177"/>
<path d="M-619.515 479.996C-636.597 479.996 -650.462 467.996 -650.462 453.214V411.417H-619.515V479.996Z" fill="#C69177"/>
<path d="M-681.39 479.996C-698.472 479.996 -712.337 467.996 -712.337 453.214V411.417H-681.39V479.996Z" fill="#C69177"/>
<path d="M-743.283 479.996C-760.365 479.996 -774.231 467.996 -774.231 453.214V411.417H-743.283V479.996Z" fill="#C69177"/>
<path d="M-743.281 480.005C-726.2 480.005 -712.333 492.005 -712.333 506.786V548.583H-743.281V480.005Z" fill="#C69177"/>
<path d="M-681.4 480.005C-664.318 480.005 -650.453 492.005 -650.453 506.786V548.583H-681.4V480.005Z" fill="#C69177"/>
<path d="M-619.519 480.005C-602.437 480.005 -588.57 492.005 -588.57 506.786V548.583H-619.519V480.005Z" fill="#C69177"/>
<path d="M-557.631 480.005C-540.55 480.005 -526.682 492.005 -526.682 506.786V548.583H-557.631V480.005Z" fill="#C69177"/>
<path d="M-495.75 480.005C-478.668 480.005 -464.803 492.005 -464.803 506.786V548.583H-495.75V480.005Z" fill="#C69177"/>
<path d="M-433.85 480.005C-416.768 480.005 -402.901 492.005 -402.901 506.786V548.583H-433.85V480.005Z" fill="#C69177"/>
<path d="M-371.969 480.005C-354.887 480.005 -341.02 492.005 -341.02 506.786V548.583H-371.969V480.005Z" fill="#C69177"/>
<path d="M-310.082 617.141C-327.164 617.141 -341.031 605.141 -341.031 590.359V548.563H-310.082V617.141Z" fill="#C69177"/>
<path d="M-371.97 617.141C-389.051 617.141 -402.919 605.141 -402.919 590.359V548.563H-371.97V617.141Z" fill="#C69177"/>
<path d="M-433.853 617.141C-450.934 617.141 -464.8 605.141 -464.8 590.359V548.563H-433.853V617.141Z" fill="#C69177"/>
<path d="M-495.745 617.141C-512.826 617.141 -526.694 605.141 -526.694 590.359V548.563H-495.745V617.141Z" fill="#C69177"/>
<path d="M-557.632 617.141C-574.714 617.141 -588.581 605.141 -588.581 590.359V548.563H-557.632V617.141Z" fill="#C69177"/>
<path d="M-619.515 617.141C-636.597 617.141 -650.462 605.141 -650.462 590.359V548.563H-619.515V617.141Z" fill="#C69177"/>
<path d="M-681.39 617.141C-698.472 617.141 -712.337 605.141 -712.337 590.359V548.563H-681.39V617.141Z" fill="#C69177"/>
<path d="M-743.283 617.141C-760.365 617.141 -774.231 605.141 -774.231 590.359V548.563H-743.283V617.141Z" fill="#C69177"/>
<path d="M-743.281 617.142C-726.2 617.142 -712.333 629.141 -712.333 643.923V685.72H-743.281V617.142Z" fill="#C69177"/>
<path d="M-681.4 617.142C-664.318 617.142 -650.453 629.14 -650.453 643.923V685.72H-681.4V617.142Z" fill="#C69177"/>
<path d="M-619.519 617.142C-602.437 617.142 -588.57 629.14 -588.57 643.923V685.72H-619.519V617.142Z" fill="#C69177"/>
<path d="M-557.631 617.142C-540.55 617.142 -526.682 629.141 -526.682 643.923V685.72H-557.631V617.142Z" fill="#C69177"/>
<path d="M-495.75 617.142C-478.668 617.142 -464.803 629.141 -464.803 643.923V685.72H-495.75V617.142Z" fill="#C69177"/>
<path d="M-433.85 617.142C-416.768 617.142 -402.901 629.14 -402.901 643.923V685.72H-433.85V617.142Z" fill="#C69177"/>
<path d="M-371.969 617.142C-354.887 617.142 -341.02 629.141 -341.02 643.923V685.72H-371.969V617.142Z" fill="#C69177"/>
<path d="M-310.082 754.287C-327.164 754.287 -341.031 742.287 -341.031 727.506V685.709H-310.082V754.287Z" fill="#C69177"/>
<path d="M-371.97 754.287C-389.051 754.287 -402.919 742.287 -402.919 727.506V685.709H-371.97V754.287Z" fill="#C69177"/>
<path d="M-433.853 754.287C-450.934 754.287 -464.8 742.287 -464.8 727.506V685.709H-433.853V754.287Z" fill="#C69177"/>
<path d="M-495.745 754.287C-512.826 754.287 -526.694 742.287 -526.694 727.506V685.709H-495.745V754.287Z" fill="#C69177"/>
<path d="M-557.632 754.287C-574.714 754.287 -588.581 742.287 -588.581 727.506V685.709H-557.632V754.287Z" fill="#C69177"/>
<path d="M-619.515 754.287C-636.597 754.287 -650.462 742.287 -650.462 727.506V685.709H-619.515V754.287Z" fill="#C69177"/>
<path d="M-681.39 754.287C-698.472 754.287 -712.337 742.287 -712.337 727.506V685.709H-681.39V754.287Z" fill="#C69177"/>
<path d="M-743.283 754.287C-760.365 754.287 -774.231 742.287 -774.231 727.506V685.709H-743.283V754.287Z" fill="#C69177"/>
<path d="M-743.281 754.288C-726.2 754.288 -712.333 766.288 -712.333 781.069V822.866H-743.281V754.288Z" fill="#C69177"/>
<path d="M-681.4 754.288C-664.318 754.288 -650.453 766.288 -650.453 781.069V822.866H-681.4V754.288Z" fill="#C69177"/>
<path d="M-619.519 754.288C-602.437 754.288 -588.57 766.288 -588.57 781.069V822.866H-619.519V754.288Z" fill="#C69177"/>
<path d="M-557.631 754.288C-540.55 754.288 -526.682 766.288 -526.682 781.069V822.866H-557.631V754.288Z" fill="#C69177"/>
<path d="M-495.75 754.288C-478.668 754.288 -464.803 766.288 -464.803 781.069V822.866H-495.75V754.288Z" fill="#C69177"/>
<path d="M-433.85 754.288C-416.768 754.288 -402.901 766.288 -402.901 781.069V822.866H-433.85V754.288Z" fill="#C69177"/>
<path d="M-371.969 754.288C-354.887 754.288 -341.02 766.288 -341.02 781.069V822.866H-371.969V754.288Z" fill="#C69177"/>
<path d="M-310.082 891.433C-327.164 891.433 -341.031 879.433 -341.031 864.652V822.855H-310.082V891.433Z" fill="#C69177"/>
<path d="M-371.97 891.433C-389.051 891.433 -402.919 879.433 -402.919 864.652V822.855H-371.97V891.433Z" fill="#C69177"/>
<path d="M-433.853 891.433C-450.934 891.433 -464.8 879.433 -464.8 864.652V822.855H-433.853V891.433Z" fill="#C69177"/>
<path d="M-495.745 891.433C-512.826 891.433 -526.694 879.433 -526.694 864.652V822.855H-495.745V891.433Z" fill="#C69177"/>
<path d="M-557.632 891.433C-574.714 891.433 -588.581 879.433 -588.581 864.652V822.855H-557.632V891.433Z" fill="#C69177"/>
<path d="M-619.515 891.433C-636.597 891.433 -650.462 879.433 -650.462 864.652V822.855H-619.515V891.433Z" fill="#C69177"/>
<path d="M-681.39 891.433C-698.472 891.433 -712.337 879.433 -712.337 864.652V822.855H-681.39V891.433Z" fill="#C69177"/>
<path d="M-743.283 891.433C-760.365 891.433 -774.231 879.433 -774.231 864.652V822.855H-743.283V891.433Z" fill="#C69177"/>
<path d="M-743.281 891.421C-726.2 891.421 -712.333 903.421 -712.333 918.203V960H-743.281V891.421Z" fill="#C69177"/>
<path d="M-681.4 891.421C-664.318 891.421 -650.453 903.421 -650.453 918.203V960H-681.4V891.421Z" fill="#C69177"/>
<path d="M-619.519 891.421C-602.437 891.421 -588.57 903.421 -588.57 918.203V960H-619.519V891.421Z" fill="#C69177"/>
<path d="M-557.631 891.421C-540.55 891.421 -526.682 903.421 -526.682 918.203V960H-557.631V891.421Z" fill="#C69177"/>
<path d="M-495.75 891.421C-478.668 891.421 -464.803 903.421 -464.803 918.203V960H-495.75V891.421Z" fill="#C69177"/>
<path d="M-433.85 891.421C-416.768 891.421 -402.901 903.421 -402.901 918.203V960H-433.85V891.421Z" fill="#C69177"/>
<path d="M-371.969 891.421C-354.887 891.421 -341.02 903.421 -341.02 918.203V960H-371.969V891.421Z" fill="#C69177"/>
<path d="M-743.283 68.5783C-760.365 68.5783 -774.231 56.5787 -774.231 41.7968V0H-743.283V68.5783Z" fill="#C69177"/>
<path d="M-805.171 68.5783C-822.252 68.5783 -836.119 56.5787 -836.119 41.7968V0H-805.171V68.5783Z" fill="#C69177"/>
<path d="M-867.052 68.5785C-884.134 68.5785 -898 56.5789 -898 41.7971V0.000243962H-867.052V68.5785Z" fill="#C69177"/>
<path d="M-867.05 68.5789C-849.968 68.5789 -836.102 80.5785 -836.102 95.3604V137.158H-867.05V68.5789Z" fill="#C69177"/>
<path d="M-805.169 68.5789C-788.087 68.5789 -774.221 80.5785 -774.221 95.3603V137.157H-805.169V68.5789Z" fill="#C69177"/>
<path d="M-743.283 205.714C-760.365 205.714 -774.231 193.714 -774.231 178.932V137.135H-743.283V205.714Z" fill="#C69177"/>
<path d="M-805.171 205.714C-822.252 205.714 -836.119 193.714 -836.119 178.932V137.135H-805.171V205.714Z" fill="#C69177"/>
<path d="M-867.052 205.714C-884.134 205.714 -898 193.714 -898 178.932V137.135H-867.052V205.714Z" fill="#C69177"/>
<path d="M-867.05 205.724C-849.968 205.724 -836.102 217.724 -836.102 232.506V274.303H-867.05V205.724Z" fill="#C69177"/>
<path d="M-805.169 205.724C-788.087 205.724 -774.221 217.724 -774.221 232.506V274.303H-805.169V205.724Z" fill="#C69177"/>
<path d="M-743.283 342.859C-760.365 342.859 -774.231 330.859 -774.231 316.077V274.281H-743.283V342.859Z" fill="#C69177"/>
<path d="M-805.171 342.859C-822.252 342.859 -836.119 330.859 -836.119 316.077V274.281H-805.171V342.859Z" fill="#C69177"/>
<path d="M-867.052 342.859C-884.134 342.859 -898 330.859 -898 316.077V274.281H-867.052V342.859Z" fill="#C69177"/>
<path d="M-867.05 342.859C-849.968 342.859 -836.102 354.859 -836.102 369.641V411.438H-867.05V342.859Z" fill="#C69177"/>
<path d="M-805.169 342.859C-788.087 342.859 -774.221 354.859 -774.221 369.641V411.438H-805.169V342.859Z" fill="#C69177"/>
<path d="M-743.283 479.996C-760.365 479.996 -774.231 467.996 -774.231 453.214V411.417H-743.283V479.996Z" fill="#C69177"/>
<path d="M-805.171 479.996C-822.252 479.996 -836.119 467.996 -836.119 453.214V411.417H-805.171V479.996Z" fill="#C69177"/>
<path d="M-867.052 479.996C-884.134 479.996 -898 467.996 -898 453.214V411.417H-867.052V479.996Z" fill="#C69177"/>
<path d="M-867.05 480.005C-849.968 480.005 -836.102 492.005 -836.102 506.786V548.583H-867.05V480.005Z" fill="#C69177"/>
<path d="M-805.169 480.005C-788.087 480.005 -774.221 492.005 -774.221 506.786V548.583H-805.169V480.005Z" fill="#C69177"/>
<path d="M-743.283 617.141C-760.365 617.141 -774.231 605.141 -774.231 590.359V548.563H-743.283V617.141Z" fill="#C69177"/>
<path d="M-805.171 617.141C-822.252 617.141 -836.119 605.141 -836.119 590.359V548.563H-805.171V617.141Z" fill="#C69177"/>
<path d="M-867.052 617.141C-884.134 617.141 -898 605.141 -898 590.359V548.563H-867.052V617.141Z" fill="#C69177"/>
<path d="M-867.05 617.142C-849.968 617.142 -836.102 629.14 -836.102 643.923V685.72H-867.05V617.142Z" fill="#C69177"/>
<path d="M-805.169 617.142C-788.087 617.142 -774.221 629.141 -774.221 643.923V685.72H-805.169V617.142Z" fill="#C69177"/>
<path d="M-743.283 754.287C-760.365 754.287 -774.231 742.287 -774.231 727.506V685.709H-743.283V754.287Z" fill="#C69177"/>
<path d="M-805.171 754.287C-822.252 754.287 -836.119 742.287 -836.119 727.506V685.709H-805.171V754.287Z" fill="#C69177"/>
<path d="M-867.052 754.287C-884.134 754.287 -898 742.287 -898 727.506V685.709H-867.052V754.287Z" fill="#C69177"/>
<path d="M-867.05 754.288C-849.968 754.288 -836.102 766.288 -836.102 781.069V822.866H-867.05V754.288Z" fill="#C69177"/>
<path d="M-805.169 754.288C-788.087 754.288 -774.221 766.288 -774.221 781.069V822.866H-805.169V754.288Z" fill="#C69177"/>
<path d="M-743.283 891.433C-760.365 891.433 -774.231 879.433 -774.231 864.652V822.855H-743.283V891.433Z" fill="#C69177"/>
<path d="M-805.171 891.433C-822.252 891.433 -836.119 879.433 -836.119 864.652V822.855H-805.171V891.433Z" fill="#C69177"/>
<path d="M-867.052 891.433C-884.134 891.433 -898 879.433 -898 864.652V822.855H-867.052V891.433Z" fill="#C69177"/>
<path d="M-867.05 891.421C-849.968 891.421 -836.102 903.421 -836.102 918.203V960H-867.05V891.421Z" fill="#C69177"/>
<path d="M-805.169 891.421C-788.087 891.421 -774.221 903.421 -774.221 918.203V960H-805.169V891.421Z" fill="#C69177"/>
</svg>
