<svg width="218" height="48" viewBox="0 0 218 48" fill="none" xmlns="http://www.w3.org/2000/svg">
<g clip-path="url(#clip0_1313_4343)">
<g clip-path="url(#clip1_1313_4343)">
<path d="M21.162 47.7394H14.9556V31.8262C18.3838 31.8262 21.162 34.6085 21.162 38.0418V47.7394Z" fill="white"/>
<path d="M14.9557 15.9131H8.74927V31.8263H14.9557V15.9131Z" fill="white"/>
<path d="M6.20648 47.7397H0V0C3.42819 0 6.20648 2.78237 6.20648 6.21559V47.7397Z" fill="white"/>
<path d="M14.9556 15.9132V0H21.162V9.69763C21.162 13.1308 18.3838 15.9132 14.9556 15.9132Z" fill="white"/>
<path d="M46.833 31.7378H44.3147V13.75H46.833V21.9995L48.9127 21.8449L54.6561 13.75H56.6058L50.6837 21.4625L57.6863 31.7378H54.6805L48.9614 23.3093L46.833 23.1547V31.7378Z" fill="white"/>
<path d="M63.9252 31.7378H62.1055L64.437 27.6537L58.0193 13.75H60.6595L65.7936 24.9771L70.5947 13.75H72.3901L63.9252 31.7378Z" fill="white"/>
<path d="M78.3122 14.9053L72.9019 15.4178V13.75H86.2734V15.4178L80.8306 14.9053V31.7378H78.3122V14.9053Z" fill="white"/>
<path d="M92.9186 31.7378H91.0989L93.4304 27.6537L87.0127 13.75H89.6529L94.787 24.9771L99.5881 13.75H101.383L92.9186 31.7378Z" fill="white"/>
<path d="M113.414 17.9635C113.414 20.3309 111.749 21.8686 109.361 22.3323V22.3811C112.155 22.7147 114.032 24.2604 114.032 26.7743C114.032 29.9065 111.262 32.0706 107.102 32.0706C105.201 32.0706 103.252 31.6313 102.326 31.0943V28.7838C103.374 29.9147 105.275 30.9153 106.916 30.9153C109.889 30.9153 111.408 29.036 111.408 26.7011C111.408 24.3662 110.149 22.6903 106.761 23.1296L105.145 23.2598V21.592L106.68 21.7221C109.629 22.1045 110.782 20.2333 110.782 18.1506C110.782 15.9377 109.523 14.5791 107.135 14.5791C105.34 14.5791 103.544 15.4821 102.569 16.7106V14.4001C103.65 13.8632 105.575 13.4238 107.468 13.4238C111.059 13.4238 113.398 15.116 113.398 17.9716L113.414 17.9635Z" fill="white"/>
<path d="M116.29 22.9753C116.29 17.5814 119.345 13.416 124.552 13.416C129.199 13.416 132.611 17.1421 132.611 22.5116C132.611 27.8811 129.556 32.0709 124.349 32.0709C119.702 32.0709 116.29 28.3448 116.29 22.9753ZM118.906 22.2269C118.906 27.393 120.856 30.9401 124.601 30.9401C128.346 30.9401 129.987 27.1652 129.987 23.2601C129.987 18.094 128.037 14.5469 124.292 14.5469C120.547 14.5469 118.906 18.3218 118.906 22.2269Z" fill="white"/>
<path d="M142.968 22.3819C145.787 22.6422 147.924 24.0008 147.924 26.7507C147.924 29.9886 145.073 31.7378 141.482 31.7378H135.99V13.75H141.149C145.332 13.75 147.152 15.3934 147.152 18.0944C147.152 20.4863 145.097 22.0239 142.968 22.3086V22.3819ZM138.509 14.9053V21.8449L140.994 21.7717C143.123 21.7229 144.536 20.6408 144.536 18.3303C144.536 16.0198 143.147 15.0924 140.743 14.9622L138.509 14.9134V14.9053ZM138.509 23.0002V30.5825L141.279 30.5093C143.789 30.4036 145.308 29.0449 145.308 26.6775C145.308 24.31 143.821 23.1059 141.206 23.0246L138.509 23.0002Z" fill="white"/>
<path d="M158.339 22.4872C158.339 27.4499 160.751 30.9157 164.391 30.9157C166.625 30.9157 168.347 29.1909 168.802 28.7841V31.0947C168.339 31.4038 166.673 32.0709 164.236 32.0709C159.053 32.0709 155.715 28.418 155.715 22.7719C155.715 17.1258 158.972 13.416 164.236 13.416C166.235 13.416 168.006 14.0831 168.55 14.3923V16.7028C167.981 16.2879 166.267 14.5713 164.114 14.5713C160.288 14.5713 158.339 17.6303 158.339 22.4872Z" fill="white"/>
<path d="M183.043 16.4998L174.269 31.7378H171.881V13.75H174.399V28.988L183.173 13.75H185.561V31.7378H183.043V16.4998Z" fill="white"/>
<path d="M193.481 14.9053L188.063 15.4178V13.75H201.435V15.4178L195.992 14.9053V31.7378H193.481V14.9053Z" fill="white"/>
<path d="M215.139 16.4998L206.366 31.7378H203.977V13.75H206.496V28.988L215.269 13.75H217.658V31.7378H215.139V16.4998Z" fill="white"/>
</g>
</g>
<defs>
<clipPath id="clip0_1313_4343">
<rect width="217.714" height="48" fill="white"/>
</clipPath>
<clipPath id="clip1_1313_4343">
<rect width="217.657" height="47.7397" fill="white"/>
</clipPath>
</defs>
</svg>
