<svg width="198" height="24" viewBox="0 0 198 24" fill="none" xmlns="http://www.w3.org/2000/svg">
<path d="M129.969 16.927H136.193V1.55356H149.221V0.286133H116.942V1.55356H129.969V16.927Z" fill="white"/>
<path d="M192.243 2.97226C190.538 2.11664 188.379 1.40825 185.767 0.84495C183.156 0.28165 180.073 0 176.522 0C172.972 0 169.984 0.277383 167.462 0.832148C164.94 1.38691 162.862 2.0889 161.228 2.93599C159.593 3.78307 158.394 4.71551 157.63 5.72902C156.866 6.74253 156.484 7.7027 156.484 8.60526C156.484 9.50782 156.866 10.4403 157.63 11.4452C158.394 12.4523 159.593 13.3826 161.228 14.2383C162.862 15.0939 164.94 15.8044 167.462 16.3656C169.984 16.9289 173.004 17.2105 176.522 17.2105C178.903 17.2105 181.06 17.0804 182.998 16.8179C184.933 16.5555 186.674 16.2034 188.221 15.7596C189.766 15.3158 191.106 14.8058 192.245 14.2276C193.383 13.6494 194.315 13.0391 195.043 12.3969C195.77 11.7546 196.321 11.1102 196.694 10.4595C197.068 9.81081 197.253 9.19203 197.253 8.60526C197.253 7.71764 196.846 6.77027 196.028 5.76529C195.211 4.76031 193.95 3.82788 192.245 2.97226H192.243ZM188.953 11.4922C188.351 12.4566 187.489 13.293 186.365 13.9993C185.24 14.7055 183.909 15.2667 182.366 15.6807C180.824 16.0946 179.166 16.3208 177.393 16.357C175.588 16.3955 173.902 16.2376 172.334 15.8876C170.765 15.5377 169.385 15.0341 168.192 14.3748C166.999 13.7155 166.037 12.9175 165.301 11.9808C164.565 11.0441 164.144 10.0071 164.038 8.86984C163.931 7.73257 164.155 6.68279 164.712 5.72048C165.269 4.75818 166.08 3.9239 167.142 3.21764C168.205 2.51138 169.485 1.95235 170.983 1.53841C172.481 1.12447 174.13 0.900427 175.935 0.86202C177.708 0.825747 179.403 0.981508 181.018 1.3293C182.631 1.67923 184.065 2.18279 185.317 2.83997C186.57 3.49716 187.585 4.29303 188.366 5.22973C189.147 6.16643 189.591 7.20128 189.698 8.33855C189.804 9.47582 189.557 10.5256 188.955 11.49L188.953 11.4922Z" fill="white"/>
<path d="M197.253 21.1689H0V24.0004H197.253V21.1689Z" fill="white"/>
<path d="M82.1777 13.1691H100.148L103.508 16.9287H111.119L96.1066 0.290039H91.0817L77.1443 16.9309H78.9985L82.1777 13.1713V13.1691ZM90.8171 2.95291H91.0134L99.1343 12.0404H83.1315L90.815 2.95291H90.8171Z" fill="white"/>
<path d="M6.22404 12.038H19.3037C19.3037 12.038 31.4424 12.3367 31.4424 6.16177C31.4424 -0.0131923 19.3037 0.285528 19.3037 0.285528H0V16.9264H6.22404V12.038ZM6.22404 1.55295H17.1615C19.0903 1.59349 24.9495 2.05651 24.9495 6.16177C24.9495 10.267 18.8343 10.7279 16.8222 10.7706H16.1885H6.22404V1.55295Z" fill="white"/>
<path d="M69.9261 15.6574H51.0876V0.286133H44.8635V15.6574V16.927H69.9261V15.6574Z" fill="white"/>
</svg>
